<svg t="1658565130639" class="icon" viewBox="0 0 1024 1024" version="1.1" xmlns="http://www.w3.org/2000/svg" p-id="2625" width="200" height="200"><path d="M864 64H256a128.14 128.14 0 0 0-128 128v640a128.14 128.14 0 0 0 128 128h608a32 32 0 0 0 32-32V448a32 32 0 0 0-32-32H448v-32h416a32 32 0 0 0 32-32V96a32 32 0 0 0-32-32z m-608 64h576v64H256a127.23 127.23 0 0 0-64 17.18V192a64.07 64.07 0 0 1 64-64z m576 544H448v-64h384z m-384 64h384v32H448z m-32-256h416v64H416a32 32 0 0 0-32 32v224a32 32 0 0 0 32 32h416v64H384a64.07 64.07 0 0 1-64-64V384h64v64a32 32 0 0 0 32 32zM288 320a32 32 0 0 0-32 32v480a127.23 127.23 0 0 0 17.18 64H256a64.07 64.07 0 0 1-64-64V320a64.07 64.07 0 0 1 64-64h576v64z" fill="#2980b9" p-id="2626"></path></svg>